<?xml version="1.0" encoding="UTF-8" standalone="no"?>
<!DOCTYPE svg PUBLIC "-//W3C//DTD SVG 1.1//EN" "http://www.w3.org/Graphics/SVG/1.1/DTD/svg11.dtd">
<svg width="100%" height="100%" viewBox="0 0 2111 711" version="1.1" xmlns="http://www.w3.org/2000/svg" xmlns:xlink="http://www.w3.org/1999/xlink" xml:space="preserve" xmlns:serif="http://www.serif.com/" style="fill-rule:evenodd;clip-rule:evenodd;stroke-linejoin:round;stroke-miterlimit:2;">
    <g transform="matrix(1,0,0,1,-86.5685,-416.95)">
        <g transform="matrix(4.16667,0,0,4.16667,-48.6948,-1151.79)">
            <path d="M66.989,512.352L66.989,504.29L96.145,504.241L96.145,529.776C91.673,533.35 87.057,536.027 82.296,537.837C77.536,539.633 72.647,540.53 67.646,540.53C60.882,540.53 54.727,539.088 49.213,536.186C43.683,533.302 39.516,529.102 36.695,523.636C33.874,518.154 32.463,512.032 32.463,505.268C32.463,498.568 33.874,492.316 36.679,486.515C39.468,480.696 43.507,476.384 48.765,473.563C54.022,470.758 60.08,469.348 66.941,469.348C71.91,469.348 76.414,470.149 80.437,471.768C84.46,473.37 87.618,475.615 89.894,478.5C92.186,481.384 93.916,485.136 95.119,489.768L86.896,492.027C85.855,488.518 84.572,485.761 83.049,483.757C81.511,481.754 79.315,480.152 76.461,478.949C73.624,477.747 70.451,477.138 66.989,477.138C62.821,477.138 59.216,477.779 56.186,479.045C53.14,480.311 50.704,481.978 48.829,484.045C46.969,486.114 45.526,488.374 44.485,490.858C42.738,495.106 41.856,499.722 41.856,504.707C41.856,510.847 42.914,515.975 45.03,520.11C47.146,524.245 50.223,527.307 54.263,529.311C58.301,531.314 62.581,532.324 67.117,532.324C71.076,532.324 74.923,531.555 78.673,530.032C82.441,528.525 85.278,526.906 87.217,525.176L87.217,512.352L66.989,512.352ZM106.804,505.828C106.804,494.4 109.865,485.457 116.005,478.997C122.143,472.538 130.061,469.3 139.775,469.3C146.121,469.3 151.861,470.823 156.957,473.851C162.055,476.898 165.949,481.128 168.626,486.562C171.303,491.98 172.633,498.151 172.633,505.028C172.633,512.016 171.239,518.267 168.417,523.765C165.597,529.278 161.606,533.446 156.444,536.284C151.267,539.12 145.705,540.53 139.726,540.53C133.235,540.53 127.449,538.976 122.352,535.835C117.238,532.709 113.376,528.43 110.747,523.011C108.118,517.61 106.804,511.872 106.804,505.828ZM116.196,505.973C116.196,514.275 118.424,520.799 122.881,525.575C127.352,530.353 132.947,532.741 139.679,532.741C146.539,532.741 152.181,530.336 156.604,525.512C161.028,520.687 163.257,513.842 163.257,504.979C163.257,499.386 162.295,494.497 160.403,490.313C158.512,486.129 155.739,482.892 152.1,480.585C148.446,478.292 144.359,477.138 139.823,477.138C133.363,477.138 127.817,479.35 123.169,483.789C118.521,488.213 116.196,495.618 116.196,505.973ZM183.997,539.36L183.997,470.518L193.118,470.518L193.118,531.235L227.018,531.235L227.018,539.36L183.997,539.36ZM237.869,539.36L237.869,470.518L261.576,470.518C266.929,470.518 271.016,470.854 273.838,471.512C277.78,472.409 281.146,474.06 283.935,476.433C287.557,479.51 290.282,483.42 292.078,488.198C293.888,492.973 294.787,498.424 294.787,504.563C294.787,509.788 294.177,514.42 292.943,518.459C291.725,522.499 290.17,525.848 288.246,528.493C286.34,531.138 284.255,533.221 281.979,534.727C279.719,536.251 276.979,537.404 273.773,538.19C270.552,538.976 266.865,539.36 262.714,539.36L237.869,539.36ZM246.974,531.235L261.671,531.235C266.207,531.235 269.782,530.817 272.362,529.967C274.943,529.118 276.994,527.932 278.534,526.393C280.697,524.245 282.38,521.329 283.583,517.689C284.785,514.036 285.393,509.628 285.393,504.419C285.393,497.221 284.207,491.692 281.852,487.829C279.48,483.95 276.61,481.369 273.228,480.054C270.791,479.109 266.849,478.645 261.447,478.645L246.974,478.645L246.974,531.235Z" style="fill:rgb(210,172,103);fill-rule:nonzero;"/>
        </g>
        <g transform="matrix(4.16667,0,0,4.16667,-48.6948,-1124.21)">
            <path d="M303.654,463.898L331.639,463.898L342.443,505.78L353.198,463.898L381.087,463.898L381.087,532.74L363.713,532.74L363.713,480.246L350.233,532.74L334.508,532.74L321.077,480.246L321.077,532.74L303.654,532.74L303.654,463.898ZM437.011,521.376L412.776,521.376L409.441,532.74L387.708,532.74L413.577,463.898L436.77,463.898L462.656,532.74L440.393,532.74L437.011,521.376ZM432.555,506.485L424.941,481.737L417.377,506.485L432.555,506.485ZM528.775,522.69C531.435,524.533 533.166,525.703 533.984,526.168C535.202,526.857 536.853,527.658 538.921,528.556L533.007,540.482C530.025,539.055 527.075,537.34 524.175,535.352C521.257,533.365 519.222,531.858 518.068,530.865C513.372,532.9 507.489,533.91 500.404,533.91C489.953,533.91 481.699,531.186 475.656,525.735C468.524,519.292 464.949,510.236 464.949,498.551C464.949,487.218 468.075,478.42 474.326,472.136C480.577,465.869 489.296,462.728 500.5,462.728C511.928,462.728 520.744,465.789 526.963,471.927C533.183,478.066 536.292,486.85 536.292,498.279C536.292,508.44 533.775,516.583 528.775,522.69ZM512.473,511.79C514.172,508.761 515.022,504.226 515.022,498.182C515.022,491.225 513.724,486.274 511.143,483.292C508.563,480.311 505.004,478.836 500.452,478.836C496.236,478.836 492.807,480.343 490.178,483.388C487.55,486.417 486.235,491.162 486.235,497.621C486.235,505.122 487.517,510.396 490.082,513.441C492.646,516.471 496.173,517.994 500.645,517.994C502.087,517.994 503.45,517.85 504.732,517.576C502.953,515.845 500.131,514.227 496.285,512.687L499.619,505.026C501.494,505.379 502.953,505.796 504.011,506.308C505.052,506.805 507.088,508.119 510.133,510.252C510.855,510.749 511.64,511.261 512.473,511.79" style="fill:white;fill-rule:nonzero;"/>
        </g>
        <g transform="matrix(4.16667,0,0,4.16667,-48.6948,-1802.63)">
            <path d="M309.119,609.222C382.246,605.527 450.842,590.498 510.478,553.065L513.513,576.843C448.547,608.208 379.485,612.967 309.119,609.222Z" style="fill:url(#_Linear1);"/>
        </g>
        <g transform="matrix(4.16667,0,0,4.16667,-48.6948,-1954.03)">
            <path d="M367.529,633.332C414.526,620.83 457.013,601.592 490.586,569.035L495.842,584.063C457.968,613.413 413.76,626.046 367.529,633.332" style="fill:white;"/>
        </g>
        <g transform="matrix(4.16667,0,0,4.16667,-48.6948,-1655.44)">
            <path d="M398.973,577.523C437.663,576.474 474.098,569.379 506.077,550.335L507.387,562.938C472.667,578.711 436.112,580.372 398.973,577.523" style="fill:white;"/>
        </g>
        <g transform="matrix(4.16667,0,0,4.16667,-48.6948,-1625.2)">
            <path d="M55.898,569.55L53.291,569.55L51.485,564.409L43.497,564.409L41.692,569.55L39.203,569.55L45.914,551.113L49.186,551.113L55.898,569.55ZM50.716,562.305L47.492,553.261L44.249,562.305L50.716,562.305ZM69.728,574.652L67.399,574.652L67.399,567.99C66.68,568.606 65.967,569.068 65.256,569.368C64.546,569.668 63.781,569.82 62.952,569.82C61.312,569.82 60.002,569.187 59.022,567.918C58.046,566.654 57.555,564.905 57.555,562.677C57.555,561.49 57.728,560.436 58.071,559.525C58.413,558.615 58.865,557.85 59.423,557.229C59.969,556.629 60.611,556.16 61.342,555.831C62.078,555.5 62.855,555.336 63.671,555.336C64.415,555.336 65.074,555.419 65.645,555.584C66.22,555.75 66.803,555.991 67.399,556.312L67.547,555.72L69.728,555.72L69.728,574.652ZM67.399,566.033L67.399,558.209C66.756,557.919 66.186,557.714 65.691,557.601C65.193,557.486 64.656,557.428 64.081,557.428C62.732,557.428 61.71,557.885 61.009,558.797C60.307,559.71 59.956,560.966 59.956,562.567C59.956,564.182 60.239,565.428 60.806,566.3C61.371,567.169 62.26,567.606 63.473,567.606C64.149,567.606 64.829,567.458 65.505,567.165C66.182,566.874 66.812,566.494 67.399,566.033ZM85.776,569.55L83.447,569.55L83.447,568.016C82.665,568.632 81.913,569.11 81.195,569.439C80.476,569.769 79.685,569.934 78.819,569.934C77.365,569.934 76.233,569.491 75.426,568.602C74.618,567.716 74.212,566.413 74.212,564.697L74.212,555.72L76.541,555.72L76.541,563.594C76.541,564.296 76.575,564.896 76.639,565.399C76.706,565.897 76.845,566.325 77.061,566.679C77.285,567.043 77.572,567.305 77.928,567.47C78.282,567.635 78.798,567.72 79.474,567.72C80.079,567.72 80.734,567.563 81.448,567.251C82.162,566.933 82.83,566.535 83.447,566.045L83.447,555.72L85.776,555.72L85.776,569.55ZM92.86,553.4L90.236,553.4L90.236,550.987L92.86,550.987L92.86,553.4ZM92.712,569.55L90.383,569.55L90.383,555.72L92.712,555.72L92.712,569.55ZM118.19,555.72L112.594,569.55L110.253,569.55L104.694,555.72L107.222,555.72L111.504,566.727L115.752,555.72L118.19,555.72ZM132.801,562.639C132.801,564.896 132.222,566.675 131.068,567.977C129.915,569.283 128.363,569.934 126.423,569.934C124.471,569.934 122.915,569.283 121.766,567.977C120.612,566.675 120.037,564.896 120.037,562.639C120.037,560.386 120.612,558.607 121.766,557.297C122.915,555.991 124.471,555.336 126.423,555.336C128.363,555.336 129.915,555.991 131.068,557.297C132.222,558.607 132.801,560.386 132.801,562.639ZM130.4,562.639C130.4,560.851 130.05,559.521 129.348,558.649C128.647,557.778 127.67,557.343 126.423,557.343C125.164,557.343 124.184,557.778 123.486,558.649C122.788,559.521 122.438,560.851 122.438,562.639C122.438,564.373 122.788,565.686 123.49,566.582C124.192,567.478 125.172,567.927 126.423,567.927C127.662,567.927 128.634,567.483 129.34,566.596C130.046,565.707 130.4,564.389 130.4,562.639ZM146.635,568.684C145.857,569.055 145.122,569.343 144.425,569.55C143.727,569.757 142.988,569.858 142.202,569.858C141.204,569.858 140.287,569.711 139.454,569.418C138.622,569.127 137.907,568.684 137.311,568.088C136.711,567.491 136.242,566.743 135.912,565.835C135.582,564.925 135.418,563.865 135.418,562.652C135.418,560.39 136.039,558.615 137.281,557.326C138.524,556.037 140.164,555.394 142.202,555.394C142.997,555.394 143.773,555.504 144.534,555.728C145.3,555.952 146.001,556.222 146.635,556.548L146.635,559.135L146.512,559.135C145.803,558.581 145.067,558.158 144.315,557.858C143.558,557.563 142.823,557.416 142.104,557.416C140.781,557.416 139.741,557.858 138.976,558.747C138.212,559.634 137.832,560.935 137.832,562.652C137.832,564.318 138.203,565.597 138.951,566.494C139.699,567.39 140.748,567.838 142.104,567.838C142.574,567.838 143.051,567.774 143.541,567.651C144.028,567.529 144.463,567.368 144.852,567.169C145.19,566.997 145.507,566.811 145.807,566.621C146.103,566.427 146.339,566.258 146.512,566.118L146.635,566.118L146.635,568.684ZM161.196,562.875L151.01,562.875C151.01,563.726 151.136,564.469 151.394,565.099C151.648,565.728 151.999,566.248 152.447,566.654C152.874,567.047 153.385,567.347 153.972,567.545C154.565,567.745 155.215,567.842 155.925,567.842C156.863,567.842 157.81,567.656 158.765,567.28C159.717,566.904 160.397,566.531 160.803,566.168L160.925,566.168L160.925,568.709C160.14,569.039 159.341,569.313 158.525,569.537C157.705,569.761 156.847,569.871 155.947,569.871C153.652,569.871 151.864,569.249 150.575,568.007C149.285,566.764 148.643,565.002 148.643,562.714C148.643,560.453 149.26,558.657 150.494,557.33C151.728,555.999 153.351,555.336 155.363,555.336C157.232,555.336 158.668,555.881 159.678,556.971C160.688,558.058 161.196,559.608 161.196,561.613L161.196,562.875ZM158.931,561.091C158.922,559.871 158.613,558.924 158.009,558.257C157.401,557.588 156.479,557.255 155.24,557.255C153.998,557.255 153.004,557.622 152.265,558.357C151.525,559.089 151.107,560.002 151.01,561.091L158.931,561.091ZM159.531,553.488L157.561,553.488L155.27,550.318L152.992,553.488L151.073,553.488L153.897,548.797L156.707,548.797L159.531,553.488ZM185.601,555.72L180.005,569.55L177.663,569.55L172.105,555.72L174.632,555.72L178.914,566.727L183.162,555.72L185.601,555.72ZM198.901,569.55L196.585,569.55L196.585,568.079C196.378,568.218 196.099,568.413 195.748,568.666C195.398,568.916 195.06,569.118 194.73,569.266C194.341,569.457 193.893,569.612 193.39,569.744C192.887,569.871 192.3,569.934 191.619,569.934C190.377,569.934 189.32,569.52 188.454,568.696C187.587,567.871 187.152,566.819 187.152,565.538C187.152,564.491 187.375,563.641 187.828,562.994C188.276,562.347 188.918,561.836 189.751,561.464C190.592,561.091 191.606,560.843 192.786,560.707C193.965,560.576 195.233,560.479 196.585,560.411L196.585,560.052C196.585,559.525 196.493,559.085 196.307,558.738C196.121,558.391 195.855,558.117 195.508,557.919C195.178,557.728 194.781,557.601 194.319,557.533C193.859,557.47 193.373,557.437 192.87,557.437C192.261,557.437 191.581,557.516 190.829,557.676C190.077,557.838 189.303,558.074 188.5,558.379L188.378,558.379L188.378,556.012C188.83,555.889 189.489,555.754 190.347,555.606C191.205,555.458 192.05,555.382 192.884,555.382C193.859,555.382 194.704,555.462 195.428,555.622C196.15,555.783 196.775,556.058 197.304,556.448C197.824,556.828 198.221,557.317 198.492,557.923C198.766,558.523 198.901,559.27 198.901,560.162L198.901,569.55ZM196.585,566.143L196.585,562.293C195.875,562.334 195.038,562.394 194.079,562.478C193.116,562.559 192.355,562.681 191.792,562.837C191.124,563.028 190.583,563.323 190.17,563.721C189.76,564.122 189.553,564.676 189.553,565.378C189.553,566.168 189.793,566.764 190.271,567.165C190.748,567.567 191.48,567.766 192.461,567.766C193.28,567.766 194.029,567.606 194.704,567.289C195.381,566.971 196.006,566.591 196.585,566.143ZM205.74,569.55L203.411,569.55L203.411,550.28L205.74,550.28L205.74,569.55ZM221.92,562.875L211.734,562.875C211.734,563.726 211.861,564.469 212.118,565.099C212.372,565.728 212.723,566.248 213.171,566.654C213.598,567.047 214.108,567.347 214.696,567.545C215.288,567.745 215.939,567.842 216.649,567.842C217.587,567.842 218.534,567.656 219.489,567.28C220.44,566.904 221.121,566.531 221.527,566.168L221.649,566.168L221.649,568.709C220.863,569.039 220.064,569.313 219.249,569.537C218.428,569.761 217.57,569.871 216.67,569.871C214.375,569.871 212.587,569.249 211.298,568.007C210.009,566.764 209.367,565.002 209.367,562.714C209.367,560.453 209.984,558.657 211.218,557.33C212.452,555.999 214.074,555.336 216.087,555.336C217.955,555.336 219.392,555.881 220.403,556.971C221.413,558.058 221.92,559.608 221.92,561.613L221.92,562.875ZM219.654,561.091C219.646,559.871 219.337,558.924 218.733,558.257C218.124,557.588 217.203,557.255 215.964,557.255C214.721,557.255 213.729,557.622 212.989,558.357C212.249,559.089 211.831,560.002 211.734,561.091L219.654,561.091ZM246.151,562.639C246.151,564.896 245.572,566.675 244.418,567.977C243.264,569.283 241.713,569.934 239.773,569.934C237.82,569.934 236.265,569.283 235.115,567.977C233.961,566.675 233.387,564.896 233.387,562.639C233.387,560.386 233.961,558.607 235.115,557.297C236.265,555.991 237.82,555.336 239.773,555.336C241.713,555.336 243.264,555.991 244.418,557.297C245.572,558.607 246.151,560.386 246.151,562.639ZM243.75,562.639C243.75,560.851 243.4,559.521 242.698,558.649C241.996,557.778 241.019,557.343 239.773,557.343C238.513,557.343 237.533,557.778 236.835,558.649C236.138,559.521 235.787,560.851 235.787,562.639C235.787,564.373 236.138,565.686 236.839,566.582C237.542,567.478 238.522,567.927 239.773,567.927C241.011,567.927 241.984,567.483 242.689,566.596C243.395,565.707 243.75,564.389 243.75,562.639ZM261.223,569.55L258.894,569.55L258.894,568.016C258.112,568.632 257.36,569.11 256.641,569.439C255.923,569.769 255.132,569.934 254.266,569.934C252.812,569.934 251.679,569.491 250.872,568.602C250.064,567.716 249.659,566.413 249.659,564.697L249.659,555.72L251.988,555.72L251.988,563.594C251.988,564.296 252.021,564.896 252.085,565.399C252.153,565.897 252.292,566.325 252.507,566.679C252.731,567.043 253.02,567.305 253.374,567.47C253.729,567.635 254.245,567.72 254.922,567.72C255.526,567.72 256.181,567.563 256.895,567.251C257.61,566.933 258.277,566.535 258.894,566.045L258.894,555.72L261.223,555.72L261.223,569.55ZM274.435,558.261L274.313,558.261C273.966,558.175 273.628,558.117 273.303,558.079C272.977,558.04 272.593,558.024 272.145,558.024C271.427,558.024 270.733,558.184 270.065,558.501C269.397,558.818 268.751,559.228 268.134,559.731L268.134,569.55L265.805,569.55L265.805,555.72L268.134,555.72L268.134,557.762C269.06,557.021 269.875,556.494 270.581,556.185C271.287,555.876 272.006,555.72 272.74,555.72C273.142,555.72 273.438,555.728 273.62,555.75C273.801,555.77 274.072,555.809 274.435,555.868L274.435,558.261ZM288.417,562.639C288.417,564.896 287.838,566.675 286.684,567.977C285.53,569.283 283.979,569.934 282.039,569.934C280.086,569.934 278.531,569.283 277.381,567.977C276.227,566.675 275.653,564.896 275.653,562.639C275.653,560.386 276.227,558.607 277.381,557.297C278.531,555.991 280.086,555.336 282.039,555.336C283.979,555.336 285.53,555.991 286.684,557.297C287.838,558.607 288.417,560.386 288.417,562.639ZM286.016,562.639C286.016,560.851 285.666,559.521 284.964,558.649C284.262,557.778 283.286,557.343 282.039,557.343C280.78,557.343 279.799,557.778 279.102,558.649C278.404,559.521 278.054,560.851 278.054,562.639C278.054,564.373 278.404,565.686 279.106,566.582C279.808,567.478 280.788,567.927 282.039,567.927C283.278,567.927 284.25,567.483 284.956,566.596C285.662,565.707 286.016,564.389 286.016,562.639ZM295.573,569.55L292.614,569.55L292.614,566.02L295.573,566.02L295.573,569.55Z" style="fill:white;fill-rule:nonzero;"/>
        </g>
        <g transform="matrix(4.16667,0,0,4.16667,-48.6948,-1564.28)">
            <path d="M526.323,543.879C528.096,543.879 529.811,544.336 531.498,545.251C533.184,546.137 534.5,547.452 535.443,549.139C536.386,550.826 536.844,552.599 536.844,554.428C536.844,556.23 536.386,557.973 535.443,559.66C534.529,561.318 533.241,562.633 531.555,563.549C529.897,564.492 528.153,564.949 526.323,564.949C524.493,564.949 522.749,564.492 521.062,563.549C519.405,562.633 518.089,561.318 517.174,559.66C516.231,557.973 515.773,556.23 515.773,554.428C515.773,552.599 516.26,550.826 517.203,549.139C518.146,547.452 519.462,546.137 521.148,545.251C522.835,544.336 524.55,543.879 526.323,543.879ZM526.323,545.623C524.836,545.623 523.407,545.994 522.006,546.766C520.605,547.51 519.491,548.596 518.718,550.026C517.918,551.426 517.518,552.885 517.518,554.428C517.518,555.944 517.918,557.402 518.69,558.774C519.462,560.175 520.548,561.261 521.949,562.033C523.35,562.805 524.808,563.205 526.323,563.205C527.838,563.205 529.296,562.805 530.697,562.033C532.098,561.261 533.184,560.175 533.956,558.774C534.728,557.402 535.1,555.944 535.1,554.428C535.1,552.885 534.7,551.426 533.928,550.026C533.127,548.596 532.041,547.51 530.64,546.766C529.239,545.994 527.781,545.623 526.323,545.623ZM521.692,560.232L521.692,548.91L525.579,548.91C526.924,548.91 527.896,549.025 528.496,549.225C529.096,549.425 529.554,549.797 529.926,550.312C530.268,550.826 530.44,551.398 530.44,551.969C530.44,552.799 530.154,553.513 529.554,554.142C528.953,554.743 528.182,555.086 527.18,555.172C527.581,555.343 527.924,555.543 528.153,555.772C528.61,556.201 529.182,556.973 529.84,558.002L531.212,560.232L528.982,560.232L527.981,558.459C527.18,557.03 526.552,556.173 526.066,555.801C525.723,555.543 525.237,555.429 524.608,555.429L523.521,555.429L523.521,560.232L521.692,560.232ZM523.521,553.856L525.751,553.856C526.809,553.856 527.524,553.685 527.924,553.371C528.296,553.056 528.496,552.656 528.496,552.141C528.496,551.798 528.41,551.512 528.21,551.226C528.039,550.969 527.781,550.769 527.438,550.654C527.123,550.511 526.495,550.454 525.608,550.454L523.521,550.454L523.521,553.856Z" style="fill:white;fill-rule:nonzero;"/>
        </g>
    </g>
    <defs>
        <linearGradient id="_Linear1" x1="0" y1="0" x2="1" y2="0" gradientUnits="userSpaceOnUse" gradientTransform="matrix(49.58,189.51,189.51,-49.58,386.52,485.663)"><stop offset="0" style="stop-color:rgb(210,172,103);stop-opacity:1"/><stop offset="0.25" style="stop-color:white;stop-opacity:1"/><stop offset="0.35" style="stop-color:rgb(255,203,3);stop-opacity:1"/><stop offset="0.59" style="stop-color:rgb(210,172,103);stop-opacity:1"/><stop offset="0.77" style="stop-color:white;stop-opacity:1"/><stop offset="1" style="stop-color:rgb(210,172,103);stop-opacity:1"/></linearGradient>
    </defs>
</svg>
