<?xml version="1.0" encoding="UTF-8" standalone="no"?>
<!DOCTYPE svg PUBLIC "-//W3C//DTD SVG 1.1//EN" "http://www.w3.org/Graphics/SVG/1.1/DTD/svg11.dtd">
<svg width="100%" height="100%" viewBox="0 0 2111 711" version="1.1" xmlns="http://www.w3.org/2000/svg" xmlns:xlink="http://www.w3.org/1999/xlink" xml:space="preserve" xmlns:serif="http://www.serif.com/" style="fill-rule:evenodd;clip-rule:evenodd;stroke-linejoin:round;stroke-miterlimit:2;">
    <g transform="matrix(1,0,0,1,-164.755,-851.413)">
        <g transform="matrix(4.16667,0,0,4.16667,12.3101,-1540.12)">
            <path d="M71.113,709.821L71.113,701.759L100.268,701.71L100.268,727.245C95.797,730.818 91.18,733.496 86.42,735.306C81.659,737.101 76.771,737.999 71.769,737.999C65.006,737.999 58.85,736.557 53.337,733.655C47.807,730.77 43.639,726.57 40.819,721.105C37.997,715.623 36.587,709.5 36.587,702.736C36.587,696.037 37.997,689.785 40.802,683.983C43.592,678.165 47.631,673.853 52.888,671.032C58.146,668.227 64.204,666.817 71.065,666.817C76.033,666.817 80.537,667.618 84.56,669.237C88.584,670.839 91.741,673.084 94.017,675.969C96.31,678.853 98.04,682.605 99.243,687.237L91.019,689.496C89.978,685.986 88.696,683.23 87.173,681.226C85.634,679.223 83.438,677.621 80.585,676.418C77.748,675.216 74.574,674.607 71.113,674.607C66.945,674.607 63.339,675.248 60.309,676.513C57.264,677.779 54.827,679.446 52.952,681.514C51.092,683.582 49.65,685.843 48.609,688.327C46.861,692.575 45.979,697.191 45.979,702.176C45.979,708.315 47.038,713.444 49.154,717.579C51.269,721.714 54.347,724.775 58.386,726.779C62.424,728.782 66.705,729.793 71.241,729.793C75.2,729.793 79.047,729.023 82.797,727.501C86.564,725.994 89.401,724.375 91.34,722.644L91.34,709.821L71.113,709.821ZM110.928,703.297C110.928,691.869 113.989,682.926 120.128,676.466C126.267,670.006 134.185,666.769 143.898,666.769C150.245,666.769 155.984,668.292 161.081,671.32C166.178,674.366 170.073,678.597 172.75,684.031C175.426,689.449 176.756,695.619 176.756,702.497C176.756,709.485 175.362,715.736 172.541,721.233C169.72,726.747 165.729,730.915 160.568,733.752C155.39,736.589 149.828,737.999 143.85,737.999C137.358,737.999 131.572,736.444 126.475,733.304C121.362,730.178 117.499,725.898 114.871,720.479C112.242,715.079 110.928,709.341 110.928,703.297ZM120.32,703.442C120.32,711.744 122.548,718.268 127.004,723.044C131.476,727.821 137.07,730.21 143.802,730.21C150.663,730.21 156.304,727.805 160.728,722.981C165.152,718.156 167.38,711.311 167.38,702.448C167.38,696.855 166.419,691.965 164.527,687.781C162.635,683.598 159.862,680.36 156.224,678.053C152.569,675.76 148.482,674.607 143.946,674.607C137.486,674.607 131.941,676.818 127.292,681.258C122.644,685.682 120.32,693.087 120.32,703.442ZM188.121,736.829L188.121,667.987L197.241,667.987L197.241,728.703L231.141,728.703L231.141,736.829L188.121,736.829ZM241.993,736.829L241.993,667.987L265.699,667.987C271.052,667.987 275.14,668.323 277.961,668.981C281.904,669.878 285.27,671.529 288.058,673.902C291.681,676.979 294.406,680.889 296.201,685.666C298.012,690.442 298.91,695.892 298.91,702.032C298.91,707.257 298.301,711.888 297.067,715.928C295.849,719.967 294.294,723.317 292.37,725.962C290.463,728.607 288.379,730.69 286.103,732.196C283.843,733.72 281.103,734.873 277.896,735.659C274.675,736.444 270.988,736.829 266.837,736.829L241.993,736.829ZM251.097,728.703L265.795,728.703C270.331,728.703 273.906,728.286 276.486,727.436C279.067,726.587 281.118,725.4 282.657,723.861C284.821,721.714 286.504,718.797 287.706,715.158C288.908,711.504 289.517,707.097 289.517,701.887C289.517,694.689 288.331,689.161 285.975,685.298C283.603,681.419 280.733,678.838 277.351,677.523C274.915,676.578 270.973,676.113 265.571,676.113L251.097,676.113L251.097,728.703Z" style="fill:rgb(210,172,103);fill-rule:nonzero;"/>
        </g>
        <g transform="matrix(4.16667,0,0,4.16667,12.3101,-1512.53)">
            <path d="M307.777,661.367L335.763,661.367L346.566,703.249L357.321,661.367L385.211,661.367L385.211,730.208L367.836,730.208L367.836,677.715L354.356,730.208L338.632,730.208L325.2,677.715L325.2,730.208L307.777,730.208L307.777,661.367ZM441.134,718.845L416.899,718.845L413.565,730.208L391.831,730.208L417.701,661.367L440.894,661.367L466.78,730.208L444.516,730.208L441.134,718.845ZM436.679,703.953L429.065,679.206L421.5,703.953L436.679,703.953ZM532.898,720.159C535.559,722.002 537.29,723.172 538.107,723.637C539.326,724.326 540.977,725.127 543.044,726.025L537.13,737.951C534.149,736.523 531.199,734.809 528.298,732.821C525.381,730.834 523.345,729.327 522.191,728.334C517.495,730.369 511.612,731.379 504.528,731.379C494.077,731.379 485.823,728.654 479.78,723.204C472.647,716.761 469.072,707.704 469.072,696.02C469.072,684.687 472.198,675.888 478.449,669.605C484.7,663.337 493.42,660.196 504.624,660.196C516.052,660.196 524.868,663.258 531.087,669.396C537.306,675.535 540.416,684.319 540.416,695.748C540.416,705.909 537.899,714.052 532.898,720.159ZM516.597,709.259C518.296,706.23 519.146,701.695 519.146,695.651C519.146,688.694 517.847,683.742 515.267,680.761C512.687,677.779 509.128,676.305 504.576,676.305C500.36,676.305 496.931,677.811 494.301,680.856C491.673,683.886 490.359,688.631 490.359,695.089C490.359,702.591 491.64,707.865 494.205,710.91C496.77,713.94 500.296,715.463 504.768,715.463C506.211,715.463 507.573,715.318 508.855,715.045C507.076,713.314 504.255,711.695 500.408,710.156L503.742,702.495C505.617,702.848 507.076,703.265 508.135,703.777C509.176,704.274 511.211,705.588 514.257,707.721C514.978,708.218 515.763,708.73 516.597,709.259" style="fill-rule:nonzero;"/>
        </g>
        <g transform="matrix(4.16667,0,0,4.16667,12.3101,-2190.96)">
            <path d="M313.243,806.691C386.369,802.996 454.965,787.967 514.602,750.534L517.637,774.312C452.67,805.677 383.609,810.436 313.243,806.691Z" style="fill:url(#_Linear1);"/>
        </g>
        <g transform="matrix(4.16667,0,0,4.16667,12.3101,-2342.35)">
            <path d="M371.653,830.801C418.649,818.298 461.136,799.06 494.709,766.504L499.966,781.532C462.092,810.882 417.883,823.515 371.653,830.801"/>
        </g>
        <g transform="matrix(4.16667,0,0,4.16667,12.3101,-2043.77)">
            <path d="M403.096,774.992C441.786,773.943 478.222,766.848 510.2,747.804L511.51,760.407C476.79,776.18 440.235,777.841 403.096,774.992"/>
        </g>
        <g transform="matrix(4.16667,0,0,4.16667,12.3101,-2013.52)">
            <path d="M60.022,767.019L57.414,767.019L55.609,761.878L47.621,761.878L45.816,767.019L43.326,767.019L50.038,748.582L53.31,748.582L60.022,767.019ZM54.84,759.774L51.616,750.729L48.373,759.774L54.84,759.774ZM73.852,772.121L71.522,772.121L71.522,765.458C70.804,766.075 70.09,766.536 69.38,766.837C68.669,767.137 67.905,767.289 67.076,767.289C65.436,767.289 64.126,766.655 63.146,765.387C62.169,764.123 61.679,762.373 61.679,760.146C61.679,758.959 61.852,757.905 62.194,756.993C62.537,756.083 62.989,755.319 63.547,754.698C64.092,754.098 64.735,753.629 65.466,753.299C66.201,752.969 66.979,752.805 67.794,752.805C68.539,752.805 69.198,752.888 69.769,753.053C70.343,753.218 70.927,753.46 71.522,753.781L71.671,753.189L73.852,753.189L73.852,772.121ZM71.522,763.502L71.522,755.678C70.88,755.387 70.309,755.183 69.815,755.07C69.316,754.955 68.78,754.897 68.205,754.897C66.856,754.897 65.834,755.353 65.132,756.265C64.43,757.179 64.079,758.434 64.079,760.036C64.079,761.651 64.363,762.897 64.929,763.769C65.495,764.638 66.383,765.074 67.596,765.074C68.272,765.074 68.953,764.926 69.629,764.634C70.305,764.343 70.935,763.963 71.522,763.502ZM89.9,767.019L87.571,767.019L87.571,765.485C86.789,766.1 86.037,766.579 85.318,766.908C84.599,767.238 83.809,767.403 82.943,767.403C81.489,767.403 80.356,766.96 79.549,766.071C78.741,765.184 78.336,763.882 78.336,762.166L78.336,753.189L80.665,753.189L80.665,761.063C80.665,761.765 80.698,762.364 80.762,762.868C80.829,763.366 80.969,763.794 81.184,764.148C81.409,764.512 81.696,764.774 82.051,764.939C82.406,765.103 82.922,765.189 83.598,765.189C84.203,765.189 84.858,765.032 85.572,764.719C86.286,764.402 86.954,764.004 87.571,763.514L87.571,753.189L89.9,753.189L89.9,767.019ZM96.984,750.869L94.359,750.869L94.359,748.456L96.984,748.456L96.984,750.869ZM96.836,767.019L94.507,767.019L94.507,753.189L96.836,753.189L96.836,767.019ZM122.313,753.189L116.717,767.019L114.376,767.019L108.818,753.189L111.346,753.189L115.627,764.195L119.875,753.189L122.313,753.189ZM136.924,760.108C136.924,762.364 136.346,764.144 135.192,765.446C134.039,766.752 132.487,767.403 130.547,767.403C128.594,767.403 127.039,766.752 125.889,765.446C124.735,764.144 124.161,762.364 124.161,760.108C124.161,757.855 124.735,756.075 125.889,754.766C127.039,753.46 128.594,752.805 130.547,752.805C132.487,752.805 134.039,753.46 135.192,754.766C136.346,756.075 136.924,757.855 136.924,760.108ZM134.524,760.108C134.524,758.32 134.174,756.989 133.472,756.118C132.77,755.247 131.794,754.811 130.547,754.811C129.288,754.811 128.307,755.247 127.61,756.118C126.912,756.989 126.562,758.32 126.562,760.108C126.562,761.841 126.912,763.155 127.614,764.051C128.315,764.947 129.296,765.396 130.547,765.396C131.785,765.396 132.758,764.952 133.464,764.064C134.169,763.176 134.524,761.858 134.524,760.108ZM150.759,766.152C149.981,766.524 149.245,766.811 148.548,767.019C147.851,767.226 147.111,767.327 146.325,767.327C145.328,767.327 144.41,767.179 143.578,766.887C142.745,766.596 142.031,766.152 141.435,765.557C140.834,764.96 140.366,764.212 140.035,763.304C139.706,762.394 139.541,761.334 139.541,760.121C139.541,757.859 140.163,756.083 141.405,754.795C142.648,753.506 144.288,752.863 146.325,752.863C147.12,752.863 147.897,752.973 148.658,753.196C149.423,753.421 150.124,753.691 150.759,754.017L150.759,756.604L150.636,756.604C149.926,756.05 149.191,755.627 148.439,755.327C147.682,755.032 146.946,754.884 146.228,754.884C144.904,754.884 143.865,755.327 143.1,756.216C142.335,757.102 141.955,758.404 141.955,760.121C141.955,761.786 142.327,763.066 143.075,763.963C143.823,764.859 144.871,765.306 146.228,765.306C146.697,765.306 147.174,765.243 147.665,765.12C148.151,764.998 148.586,764.837 148.975,764.638C149.313,764.465 149.63,764.279 149.931,764.089C150.226,763.895 150.463,763.726 150.636,763.587L150.759,763.587L150.759,766.152ZM165.319,760.344L155.133,760.344C155.133,761.194 155.26,761.938 155.517,762.567C155.771,763.197 156.122,763.717 156.57,764.123C156.997,764.516 157.509,764.816 158.096,765.014C158.688,765.214 159.339,765.31 160.049,765.31C160.987,765.31 161.934,765.125 162.889,764.749C163.84,764.373 164.521,764 164.927,763.637L165.049,763.637L165.049,766.177C164.263,766.508 163.464,766.782 162.649,767.006C161.829,767.23 160.97,767.34 160.07,767.34C157.775,767.34 155.987,766.718 154.698,765.475C153.409,764.233 152.766,762.471 152.766,760.183C152.766,757.922 153.383,756.126 154.618,754.799C155.852,753.468 157.475,752.805 159.487,752.805C161.355,752.805 162.792,753.349 163.802,754.44C164.812,755.526 165.319,757.077 165.319,759.081L165.319,760.344ZM163.054,758.56C163.045,757.339 162.737,756.393 162.133,755.725C161.524,755.057 160.603,754.724 159.364,754.724C158.122,754.724 157.128,755.091 156.389,755.826C155.649,756.558 155.231,757.471 155.133,758.56L163.054,758.56ZM163.654,750.957L161.685,750.957L159.394,747.787L157.115,750.957L155.197,750.957L158.02,746.265L160.831,746.265L163.654,750.957ZM189.724,753.189L184.128,767.019L181.786,767.019L176.229,753.189L178.756,753.189L183.037,764.195L187.285,753.189L189.724,753.189ZM203.025,767.019L200.709,767.019L200.709,765.548C200.502,765.687 200.223,765.882 199.872,766.134C199.521,766.385 199.183,766.587 198.853,766.735C198.465,766.925 198.016,767.081 197.514,767.212C197.011,767.34 196.423,767.403 195.742,767.403C194.5,767.403 193.444,766.989 192.577,766.165C191.711,765.34 191.275,764.288 191.275,763.007C191.275,761.959 191.499,761.109 191.951,760.462C192.399,759.816 193.042,759.305 193.874,758.933C194.715,758.56 195.73,758.312 196.909,758.176C198.088,758.045 199.356,757.948 200.709,757.88L200.709,757.521C200.709,756.993 200.616,756.553 200.43,756.207C200.244,755.86 199.978,755.586 199.632,755.387C199.301,755.197 198.904,755.07 198.443,755.002C197.983,754.939 197.497,754.905 196.994,754.905C196.385,754.905 195.705,754.985 194.952,755.145C194.2,755.306 193.426,755.543 192.623,755.848L192.501,755.848L192.501,753.481C192.954,753.357 193.613,753.223 194.471,753.075C195.328,752.926 196.174,752.851 197.007,752.851C197.983,752.851 198.828,752.93 199.551,753.091C200.274,753.252 200.899,753.527 201.427,753.917C201.948,754.296 202.345,754.786 202.615,755.392C202.89,755.992 203.025,756.739 203.025,757.631L203.025,767.019ZM200.709,763.612L200.709,759.762C199.999,759.803 199.162,759.863 198.203,759.947C197.239,760.028 196.478,760.15 195.916,760.306C195.248,760.496 194.707,760.792 194.293,761.19C193.883,761.591 193.676,762.145 193.676,762.847C193.676,763.637 193.916,764.233 194.395,764.634C194.872,765.036 195.603,765.235 196.584,765.235C197.404,765.235 198.153,765.074 198.828,764.758C199.504,764.44 200.13,764.06 200.709,763.612ZM209.864,767.019L207.535,767.019L207.535,747.749L209.864,747.749L209.864,767.019ZM226.043,760.344L215.857,760.344C215.857,761.194 215.984,761.938 216.241,762.567C216.496,763.197 216.846,763.717 217.294,764.123C217.721,764.516 218.232,764.816 218.82,765.014C219.411,765.214 220.063,765.31 220.772,765.31C221.711,765.31 222.658,765.125 223.613,764.749C224.563,764.373 225.244,764 225.65,763.637L225.773,763.637L225.773,766.177C224.986,766.508 224.188,766.782 223.372,767.006C222.552,767.23 221.694,767.34 220.794,767.34C218.499,767.34 216.711,766.718 215.421,765.475C214.132,764.233 213.49,762.471 213.49,760.183C213.49,757.922 214.107,756.126 215.341,754.799C216.576,753.468 218.198,752.805 220.21,752.805C222.078,752.805 223.515,753.349 224.526,754.44C225.536,755.526 226.043,757.077 226.043,759.081L226.043,760.344ZM223.777,758.56C223.769,757.339 223.461,756.393 222.856,755.725C222.247,755.057 221.327,754.724 220.088,754.724C218.845,754.724 217.852,755.091 217.113,755.826C216.372,756.558 215.954,757.471 215.857,758.56L223.777,758.56ZM250.274,760.108C250.274,762.364 249.695,764.144 248.541,765.446C247.388,766.752 245.837,767.403 243.897,767.403C241.943,767.403 240.388,766.752 239.239,765.446C238.085,764.144 237.51,762.364 237.51,760.108C237.51,757.855 238.085,756.075 239.239,754.766C240.388,753.46 241.943,752.805 243.897,752.805C245.837,752.805 247.388,753.46 248.541,754.766C249.695,756.075 250.274,757.855 250.274,760.108ZM247.874,760.108C247.874,758.32 247.523,756.989 246.822,756.118C246.119,755.247 245.143,754.811 243.897,754.811C242.637,754.811 241.656,755.247 240.959,756.118C240.261,756.989 239.911,758.32 239.911,760.108C239.911,761.841 240.261,763.155 240.963,764.051C241.665,764.947 242.646,765.396 243.897,765.396C245.135,765.396 246.107,764.952 246.813,764.064C247.519,763.176 247.874,761.858 247.874,760.108ZM265.347,767.019L263.017,767.019L263.017,765.485C262.236,766.1 261.483,766.579 260.765,766.908C260.046,767.238 259.256,767.403 258.389,767.403C256.935,767.403 255.803,766.96 254.996,766.071C254.188,765.184 253.782,763.882 253.782,762.166L253.782,753.189L256.111,753.189L256.111,761.063C256.111,761.765 256.145,762.364 256.209,762.868C256.276,763.366 256.416,763.794 256.631,764.148C256.855,764.512 257.143,764.774 257.498,764.939C257.853,765.103 258.368,765.189 259.045,765.189C259.649,765.189 260.304,765.032 261.019,764.719C261.733,764.402 262.401,764.004 263.017,763.514L263.017,753.189L265.347,753.189L265.347,767.019ZM278.559,755.729L278.437,755.729C278.09,755.644 277.752,755.586 277.426,755.548C277.101,755.509 276.716,755.492 276.268,755.492C275.55,755.492 274.856,755.653 274.189,755.97C273.521,756.286 272.875,756.697 272.258,757.2L272.258,767.019L269.929,767.019L269.929,753.189L272.258,753.189L272.258,755.231C273.183,754.49 273.999,753.963 274.704,753.654C275.41,753.345 276.129,753.189 276.864,753.189C277.266,753.189 277.562,753.196 277.743,753.218C277.925,753.239 278.195,753.278 278.559,753.337L278.559,755.729ZM292.541,760.108C292.541,762.364 291.961,764.144 290.808,765.446C289.654,766.752 288.103,767.403 286.162,767.403C284.21,767.403 282.654,766.752 281.505,765.446C280.351,764.144 279.777,762.364 279.777,760.108C279.777,757.855 280.351,756.075 281.505,754.766C282.654,753.46 284.21,752.805 286.162,752.805C288.103,752.805 289.654,753.46 290.808,754.766C291.961,756.075 292.541,757.855 292.541,760.108ZM290.14,760.108C290.14,758.32 289.789,756.989 289.087,756.118C288.386,755.247 287.409,754.811 286.162,754.811C284.903,754.811 283.923,755.247 283.225,756.118C282.528,756.989 282.177,758.32 282.177,760.108C282.177,761.841 282.528,763.155 283.229,764.051C283.931,764.947 284.911,765.396 286.162,765.396C287.401,765.396 288.374,764.952 289.079,764.064C289.785,763.176 290.14,761.858 290.14,760.108ZM299.696,767.019L296.737,767.019L296.737,763.489L299.696,763.489L299.696,767.019Z" style="fill-rule:nonzero;"/>
        </g>
        <g transform="matrix(4.16667,0,0,4.16667,12.3101,-1952.61)">
            <path d="M530.447,741.348C532.219,741.348 533.935,741.805 535.622,742.72C537.308,743.606 538.624,744.921 539.567,746.608C540.51,748.295 540.967,750.067 540.967,751.897C540.967,753.699 540.51,755.442 539.567,757.129C538.652,758.787 537.365,760.102 535.678,761.017C534.021,761.961 532.276,762.418 530.447,762.418C528.617,762.418 526.873,761.961 525.186,761.017C523.528,760.102 522.213,758.787 521.298,757.129C520.355,755.442 519.897,753.699 519.897,751.897C519.897,750.067 520.383,748.295 521.326,746.608C522.27,744.921 523.585,743.606 525.272,742.72C526.958,741.805 528.674,741.348 530.447,741.348ZM530.447,743.092C528.96,743.092 527.53,743.463 526.13,744.235C524.729,744.978 523.614,746.065 522.842,747.495C522.042,748.895 521.641,750.353 521.641,751.897C521.641,753.412 522.042,754.871 522.813,756.243C523.585,757.643 524.672,758.73 526.073,759.502C527.473,760.274 528.931,760.674 530.447,760.674C531.962,760.674 533.42,760.274 534.821,759.502C536.222,758.73 537.308,757.643 538.08,756.243C538.852,754.871 539.224,753.412 539.224,751.897C539.224,750.353 538.823,748.895 538.051,747.495C537.251,746.065 536.164,744.978 534.764,744.235C533.363,743.463 531.905,743.092 530.447,743.092ZM525.815,757.701L525.815,746.379L529.703,746.379C531.047,746.379 532.019,746.493 532.62,746.694C533.22,746.894 533.677,747.266 534.049,747.781C534.392,748.295 534.563,748.867 534.563,749.438C534.563,750.267 534.277,750.982 533.677,751.611C533.077,752.212 532.305,752.554 531.304,752.64C531.704,752.812 532.048,753.012 532.276,753.241C532.733,753.67 533.305,754.441 533.963,755.47L535.336,757.701L533.105,757.701L532.105,755.928C531.304,754.499 530.675,753.641 530.189,753.269C529.846,753.012 529.36,752.898 528.731,752.898L527.645,752.898L527.645,757.701L525.815,757.701ZM527.645,751.325L529.875,751.325C530.933,751.325 531.647,751.154 532.048,750.839C532.42,750.525 532.62,750.125 532.62,749.61C532.62,749.267 532.534,748.981 532.334,748.695C532.162,748.438 531.905,748.238 531.561,748.123C531.247,747.98 530.618,747.923 529.732,747.923L527.645,747.923L527.645,751.325Z" style="fill-rule:nonzero;"/>
        </g>
    </g>
    <defs>
        <linearGradient id="_Linear1" x1="0" y1="0" x2="1" y2="0" gradientUnits="userSpaceOnUse" gradientTransform="matrix(49.59,189.51,189.51,-49.59,390.64,683.13)"><stop offset="0" style="stop-color:rgb(210,172,103);stop-opacity:1"/><stop offset="0.25" style="stop-color:white;stop-opacity:1"/><stop offset="0.35" style="stop-color:rgb(255,203,3);stop-opacity:1"/><stop offset="0.59" style="stop-color:rgb(210,172,103);stop-opacity:1"/><stop offset="0.77" style="stop-color:white;stop-opacity:1"/><stop offset="1" style="stop-color:rgb(210,172,103);stop-opacity:1"/></linearGradient>
    </defs>
</svg>
